/* XPM */
static char * blanktool_xpm[] = {
"16 16 254 2",
"  	c None",
". 	c #000000",
"+ 	c #001010",
"@ 	c #080000",
"# 	c #080008",
"$ 	c #080800",
"% 	c #080808",
"& 	c #080810",
"* 	c #100800",
"= 	c #100808",
"- 	c #101000",
"; 	c #181000",
"> 	c #101008",
", 	c #140C0C",
"' 	c #041014",
") 	c #101010",
"! 	c #181800",
"~ 	c #181410",
"{ 	c #001818",
"] 	c #101018",
"^ 	c #181018",
"/ 	c #001821",
"( 	c #042121",
"_ 	c #082129",
": 	c #082929",
"< 	c #102121",
"[ 	c #082931",
"} 	c #0C3131",
"| 	c #08363C",
"1 	c #084242",
"2 	c #181818",
"3 	c #211800",
"4 	c #211810",
"5 	c #211818",
"6 	c #252100",
"7 	c #292108",
"8 	c #292110",
"9 	c #312908",
"0 	c #181821",
"a 	c #211821",
"b 	c #212121",
"c 	c #2D261B",
"d 	c #212529",
"e 	c #2D2925",
"f 	c #292929",
"g 	c #2B2F35",
"h 	c #3C2E08",
"i 	c #3D3114",
"j 	c #393121",
"k 	c #3F3327",
"l 	c #313131",
"m 	c #35343A",
"n 	c #3D3B3D",
"o 	c #424242",
"p 	c #4A3D08",
"q 	c #56440E",
"r 	c #634A10",
"s 	c #685410",
"t 	c #4E3D2D",
"u 	c #5F4E28",
"v 	c #5D4E3A",
"w 	c #67543F",
"x 	c #08424A",
"y 	c #10424A",
"z 	c #104252",
"A 	c #104A52",
"B 	c #104A5A",
"C 	c #10525A",
"D 	c #105263",
"E 	c #105A63",
"F 	c #105A6B",
"G 	c #10636B",
"H 	c #42394A",
"I 	c #42424A",
"J 	c #424A4A",
"K 	c #4A424E",
"L 	c #4A4A4A",
"M 	c #4A4A52",
"N 	c #4A5252",
"O 	c #524A52",
"P 	c #524A5A",
"Q 	c #525252",
"R 	c #52525A",
"S 	c #5A525E",
"T 	c #5A5A5A",
"U 	c #5E5C65",
"V 	c #6B5A42",
"W 	c #735A42",
"X 	c #6D604A",
"Y 	c #736352",
"Z 	c #636363",
"` 	c #63636B",
" .	c #636B6B",
"..	c #6B6B6B",
"+.	c #106373",
"@.	c #106B73",
"#.	c #186373",
"$.	c #186B73",
"%.	c #186B7B",
"&.	c #18737B",
"*.	c #187384",
"=.	c #187B84",
"-.	c #187F8C",
";.	c #188494",
">.	c #188C94",
",.	c #188C9C",
"'.	c #218C9C",
").	c #218CA5",
"!.	c #2194A5",
"~.	c #2194AD",
"{.	c #219CAD",
"].	c #219CB5",
"^.	c #21A5B5",
"/.	c #21A5BD",
"(.	c #21ADBD",
"_.	c #21ADC6",
":.	c #29ADC6",
"<.	c #29B5C6",
"[.	c #29B5CE",
"}.	c #29BDCE",
"|.	c #29BDD6",
"1.	c #6B6373",
"2.	c #6B6B73",
"3.	c #6B6B7B",
"4.	c #6B7373",
"5.	c #736B7B",
"6.	c #7B6310",
"7.	c #7B6318",
"8.	c #846318",
"9.	c #846B18",
"0.	c #8C6B18",
"a.	c #8C7318",
"b.	c #947718",
"c.	c #9C7F18",
"d.	c #A58418",
"e.	c #876940",
"f.	c #AD8421",
"g.	c #AD8C21",
"h.	c #7B6352",
"i.	c #7B6B52",
"j.	c #846B52",
"k.	c #8C6B52",
"l.	c #846B5A",
"m.	c #84735A",
"n.	c #737373",
"o.	c #73737B",
"p.	c #776F84",
"q.	c #737B7B",
"r.	c #7B7B7B",
"s.	c #7B7B84",
"t.	c #7B8484",
"u.	c #8C7352",
"v.	c #947352",
"w.	c #94735A",
"x.	c #9C7B5A",
"y.	c #A57B5A",
"z.	c #A58463",
"A.	c #AD8463",
"B.	c #B58C21",
"C.	c #B59421",
"D.	c #BD9421",
"E.	c #C19C21",
"F.	c #C6A521",
"G.	c #CEA521",
"H.	c #CEA529",
"I.	c #CEAD21",
"J.	c #D6AD21",
"K.	c #D6AD29",
"L.	c #DEAD29",
"M.	c #DEB529",
"N.	c #E7B529",
"O.	c #E7BD29",
"P.	c #EFBD29",
"Q.	c #EFC629",
"R.	c #F7C629",
"S.	c #F7CE29",
"T.	c #FFCE29",
"U.	c #FFCE31",
"V.	c #AD8C63",
"W.	c #B58C63",
"X.	c #B58C6B",
"Y.	c #BD946B",
"Z.	c #BD9473",
"`.	c #C69473",
" +	c #C69C73",
".+	c #CE9C73",
"++	c #CEA57B",
"@+	c #D6A57B",
"#+	c #D6AD7B",
"$+	c #DEAD7B",
"%+	c #848484",
"&+	c #7B738C",
"*+	c #84738C",
"=+	c #847B8C",
"-+	c #84848C",
";+	c #847B94",
">+	c #8C7F94",
",+	c #8C849C",
"'+	c #94849C",
")+	c #848C8C",
"!+	c #8C8C8C",
"~+	c #8C8C94",
"{+	c #948C9C",
"]+	c #948CA5",
"^+	c #8C9494",
"/+	c #949494",
"(+	c #94949C",
"_+	c #949C9C",
":+	c #9C8CA5",
"<+	c #9C94A5",
"[+	c #9C94AD",
"}+	c #9C9C9C",
"|+	c #9C9CA5",
"1+	c #9CA5A5",
"2+	c #A594AD",
"3+	c #A59CAD",
"4+	c #A59CB5",
"5+	c #A5A5A5",
"6+	c #A5A5AD",
"7+	c #AD9CB5",
"8+	c #ADA5BD",
"9+	c #B5A5BD",
"0+	c #B5A5C6",
"a+	c #DEAD84",
"b+	c #ADADAD",
"c+	c #B5ADC6",
"d+	c #BDADC6",
"e+	c #BDADCE",
"f+	c #E7B584",
"g+	c #EFB58C",
"h+	c #B5B5B5",
"i+	c #BDB5CE",
"j+	c #C6B5CE",
"k+	c #C6B5D6",
"l+	c #EFBD8C",
"m+	c #F7BD8C",
"n+	c #BDBDBD",
"o+	c #C6BDD6",
"p+	c #CEBDD6",
"q+	c #CEBDDE",
"r+	c #F7C68C",
"s+	c #F7C694",
"t+	c #FFC694",
"u+	c #C6C6C6",
"v+	c #CEC6DE",
"w+	c #D6C6DE",
"x+	c #D6C6E7",
"y+	c #CECECE",
"z+	c #D6D6D6",
"A+	c #DEDEDE",
"B+	c #E7E7E7",
"C+	c #EFEFEF",
"D+	c #F7F7F7",
"E+	c #FFFFFF",
"  n+n+n+n+n+n+n+n+n+n+n+n+n+n+. ",
"  E+E+E+E+E+E+E+E+E+E+E+E+E+E+. ",
"  E+A+A+A+A+A+A+A+A+A+A+A+A+E+. ",
"  E+A+A+A+A+A+A+A+A+A+A+A+A+E+. ",
"  E+A+A+A+A+A+A+A+A+A+A+A+A+E+. ",
"  . A+A+A+. . A+A+A+A+A+A+A+E+. ",
"              . A+. . A+A+A+E+. ",
"                        A+A+E+. ",
"  n+                      . E+. ",
"  E+A+n+                    . . ",
"  E+A+A+A+A+A+A+A+n+            ",
"  E+A+A+A+A+A+A+A+A+A+n+n+n+n+n+",
"  E+A+A+A+A+A+A+A+A+A+A+A+A+E+. ",
"  E+A+A+A+A+A+A+A+A+A+A+A+A+E+. ",
"  E+A+A+A+A+A+A+A+A+A+A+A+A+E+. ",
"  E+E+E+E+E+E+E+E+E+E+E+E+E+E+. "};
